<svg width="1024" height="1280" viewBox="0 0 1024 1280" fill="none" xmlns="http://www.w3.org/2000/svg">
<path d="M808.192 808.215C769.385 847.239 723.222 878.176 672.376 899.237C621.53 920.298 567.011 931.063 511.977 930.909C456.946 931.06 402.432 920.293 351.59 899.232C300.749 878.172 254.589 847.236 215.785 808.215C136.657 729.088 93.0676 623.895 93.0676 512C93.0676 400.105 136.657 294.912 215.785 215.785C254.589 176.764 300.749 145.828 351.59 124.768C402.432 103.707 456.946 92.9404 511.977 93.0909C567.011 92.9373 621.53 103.702 672.376 124.763C723.222 145.824 769.385 176.761 808.192 215.785C887.319 294.912 930.886 400.105 930.886 512C930.886 623.895 887.319 729.088 808.192 808.215ZM511.977 23.2727C447.784 23.1878 384.207 35.7909 324.901 60.3577C265.595 84.9244 211.729 120.97 166.4 166.423C-24.4364 357.283 -24.4364 666.717 166.4 857.577C211.729 903.03 265.595 939.076 324.901 963.642C384.207 988.209 447.784 1000.81 511.977 1000.73C637.044 1000.73 762.135 953.018 857.577 857.577C1048.44 666.717 1048.44 357.283 857.577 166.423C812.242 120.972 758.371 84.9268 699.062 60.3603C639.752 35.7938 576.173 23.1898 511.977 23.2727V23.2727ZM668.323 355.677C661.777 349.14 652.905 345.468 643.654 345.468C634.403 345.468 625.53 349.14 618.985 355.677L511.977 462.639L405.015 355.677C398.434 349.315 389.618 345.792 380.465 345.867C371.312 345.942 362.554 349.61 356.079 356.079C349.603 362.548 345.928 371.302 345.844 380.455C345.76 389.609 349.275 398.428 355.631 405.015L462.615 512L355.631 618.961C350.776 623.853 347.476 630.071 346.145 636.834C344.814 643.596 345.511 650.601 348.15 656.968C350.789 663.335 355.251 668.779 360.975 672.618C366.7 676.456 373.431 678.516 380.323 678.54C389.26 678.54 398.196 675.165 405.015 668.346L512 561.338L618.985 668.323C625.804 675.142 634.74 678.54 643.654 678.54C650.56 678.543 657.313 676.497 663.057 672.661C668.8 668.826 673.277 663.373 675.921 656.992C678.564 650.611 679.255 643.59 677.907 636.816C676.559 630.042 673.232 623.82 668.346 618.938L561.338 512L668.323 405.039C674.867 398.492 678.544 389.614 678.544 380.358C678.544 371.101 674.867 362.223 668.323 355.677" fill="white"/>
</svg>
